<svg width="167" height="167" viewBox="0 0 167 167" fill="none" xmlns="http://www.w3.org/2000/svg">
<path d="M37.4583 9.83333V0.625H55.875V9.83333H111.125V0.625H129.542V9.83333H143.354C156.154 9.83333 166.375 20.1467 166.375 32.8542V143.354C166.375 156.062 156.154 166.375 143.354 166.375H23.6458C10.9383 166.375 0.625 156.062 0.625 143.354V32.8542C0.625 20.1467 10.9383 9.83333 23.6458 9.83333H37.4583ZM37.4583 28.25H23.6458C21.1596 28.25 19.0417 30.2758 19.0417 32.8542V143.354C19.0417 145.932 21.1596 147.958 23.6458 147.958H143.354C145.932 147.958 147.958 145.932 147.958 143.354V32.8542C147.958 30.2758 145.932 28.25 143.354 28.25H129.542V37.4583H111.125V28.25H55.875V37.4583H37.4583V28.25ZM37.4583 83.5H55.875V65.0833H37.4583V83.5ZM37.4583 120.333H55.875V101.917H37.4583V120.333ZM74.2917 83.5H92.7083V65.0833H74.2917V83.5ZM74.2917 120.333H92.7083V101.917H74.2917V120.333ZM111.125 83.5H129.542V65.0833H111.125V83.5Z" fill="#8B98A5"/>
</svg>
