<svg width="100" height="79" viewBox="0 0 100 79" fill="none" xmlns="http://www.w3.org/2000/svg">
<path d="M30.4866 73.8491L30.3565 78.5464H0L0.125781 74.092C0.923838 45.388 16.3298 35.1564 30.4866 35.1564C34.6634 35.1564 38.9443 36.0759 42.9346 38.071C41.0089 40.1442 39.2436 42.5384 37.6778 45.2535C35.4788 44.3687 33.1064 43.8266 30.4866 43.8266C18.4854 43.8266 10.6653 53.4683 9.06922 69.8675H30.7425C30.6428 71.1774 30.5257 72.4699 30.4866 73.8491ZM99.8742 74.092L100 78.5464H39.0354L39.1612 74.092C39.9592 45.388 55.3652 35.1564 69.522 35.1564C83.6789 35.1564 99.0848 45.3836 99.8829 74.092H99.8742ZM90.9308 69.8718C89.339 53.4726 81.5189 43.8309 69.5134 43.8309C57.5078 43.8309 49.6921 53.4726 48.0959 69.8718H90.9308ZM69.5134 30.8364C66.0479 30.8364 62.8904 29.6264 60.3357 27.6702C56.7098 24.8944 54.3329 20.5658 54.3329 15.656C54.3329 7.28509 61.1294 0.475586 69.5134 0.475586C77.8973 0.475586 84.6938 7.28509 84.6938 15.656C84.6938 20.5658 82.317 24.8944 78.691 27.6702C76.1364 29.6264 72.9788 30.8364 69.5134 30.8364ZM63.0075 15.656C63.0075 19.2429 65.9264 22.1619 69.5134 22.1619C73.1003 22.1619 76.0193 19.2429 76.0193 15.656C76.0193 12.0691 73.1003 9.15012 69.5134 9.15012C65.9264 9.15012 63.0075 12.0691 63.0075 15.656ZM30.4823 0.475586C38.8662 0.475586 45.6627 7.28509 45.6627 15.656C45.6627 24.0269 38.8662 30.8364 30.4823 30.8364C22.0984 30.8364 15.3019 24.0269 15.3019 15.656C15.3019 7.28509 22.0984 0.475586 30.4823 0.475586ZM30.4823 9.15012C26.8954 9.15012 23.9764 12.0691 23.9764 15.656C23.9764 19.2429 26.8954 22.1619 30.4823 22.1619C34.0692 22.1619 36.9882 19.2429 36.9882 15.656C36.9882 12.0691 34.0692 9.15012 30.4823 9.15012Z" fill="#F7F9F9"/>
</svg>
