<svg width="142" height="32" viewBox="0 0 142 32" fill="none" xmlns="http://www.w3.org/2000/svg">
<path d="M0.5 15.9999C0.5 7.38325 7.55 0.333252 16.1667 0.333252C24.7833 0.333252 31.8333 7.38325 31.8333 15.9999C31.8333 24.6166 24.7833 31.6666 16.1667 31.6666C7.55 31.6666 0.5 24.6166 0.5 15.9999ZM71 31.6666C79.6167 31.6666 86.6667 24.6166 86.6667 15.9999C86.6667 7.38325 79.6167 0.333252 71 0.333252C62.3833 0.333252 55.3333 7.38325 55.3333 15.9999C55.3333 24.6166 62.3833 31.6666 71 31.6666ZM125.833 31.6666C134.45 31.6666 141.5 24.6166 141.5 15.9999C141.5 7.38325 134.45 0.333252 125.833 0.333252C117.217 0.333252 110.167 7.38325 110.167 15.9999C110.167 24.6166 117.217 31.6666 125.833 31.6666Z" fill="#F7F9F9"/>
</svg>
