<svg width="100" height="101" viewBox="0 0 100 101" fill="none" xmlns="http://www.w3.org/2000/svg">
<path fill-rule="evenodd" clip-rule="evenodd" d="M15 0.362305H85C93.2843 0.362305 100 7.07803 100 15.3623V85.3623C100 93.6466 93.2843 100.362 85 100.362H15C6.71573 100.362 0 93.6466 0 85.3623V15.3623C0 7.07803 6.71573 0.362305 15 0.362305ZM15 10.3623C12.2386 10.3623 10 12.6009 10 15.3623V85.3623C10 88.1237 12.2386 90.3623 15 90.3623H85C87.7614 90.3623 90 88.1237 90 85.3623V15.3623C90 12.6009 87.7614 10.3623 85 10.3623H15Z" fill="#F7F9F9"/>
<path d="M65 20.3623L25 80.3623H35L75 20.3623H65Z" fill="#F7F9F9"/>
</svg>
