<svg width="100" height="106" viewBox="0 0 100 106" fill="none" xmlns="http://www.w3.org/2000/svg">
<path d="M97.955 31.6231L52.6 1.67812C51.02 0.628125 48.98 0.628125 47.4 1.67812L2.045 31.6281C0.745 32.4931 0 33.9081 0 35.4131V101.328C0 103.838 2.09 105.893 4.645 105.893H37.835C40.39 105.893 42.48 103.843 42.48 101.328V65.9531H57.52V101.328C57.52 103.838 59.61 105.893 62.165 105.893H95.36C97.91 105.893 100 103.843 100 101.328V35.4131C100 33.9081 99.205 32.4931 97.955 31.6231ZM90 95.8931L67.5 95.9431L67.555 60.4581C67.555 57.9481 65.465 55.8931 62.915 55.8931H37.2C34.645 55.8931 32.555 57.9431 32.555 60.4581L32.5 95.8931H10V39.7581L50.055 13.0481L90 39.7131V95.8931Z" fill="#F7F9F9"/>
</svg>
