<svg width="100" height="96" viewBox="0 0 100 96" fill="none" xmlns="http://www.w3.org/2000/svg">
<path d="M0 12.2671C0 5.69564 6.22222 0.362305 13.8889 0.362305H86.1111C93.7778 0.362305 100 5.69564 100 12.2671V83.6956C100 90.2671 93.7778 95.6004 86.1111 95.6004H13.8889C6.22222 95.6004 0 90.2671 0 83.6956V12.2671ZM13.8889 9.88611C12.3333 9.88611 11.1111 10.9337 11.1111 12.2671V83.6956C11.1111 85.029 12.3333 86.0766 13.8889 86.0766H86.1111C87.6667 86.0766 88.8889 85.029 88.8889 83.6956V12.2671C88.8889 10.9337 87.6667 9.88611 86.1111 9.88611H13.8889ZM72.2222 38.4575H27.7778V28.9337H72.2222V38.4575ZM27.7778 47.9814H72.2222V57.5052H27.7778V47.9814Z" fill="#F7F9F9"/>
</svg>
