<svg width="100" height="91" viewBox="0 0 100 91" fill="none" xmlns="http://www.w3.org/2000/svg">
<path d="M0 12.8623C0 5.9573 5.595 0.362305 12.5 0.362305H87.5C94.405 0.362305 100 5.9573 100 12.8623V77.8623C100 84.7673 94.405 90.3623 87.5 90.3623H12.5C5.595 90.3623 0 84.7673 0 77.8623V12.8623ZM12.5 10.3623C11.12 10.3623 10 11.4823 10 12.8623V26.6823L50 44.8723L90 26.6923V12.8623C90 11.4823 88.88 10.3623 87.5 10.3623H12.5ZM90 37.6773L50 55.8573L10 37.6673V77.8623C10 79.2423 11.12 80.3623 12.5 80.3623H87.5C88.88 80.3623 90 79.2423 90 77.8623V37.6773Z" fill="#F7F9F9"/>
</svg>
