<svg width="100" height="101" viewBox="0 0 100 101" fill="none" xmlns="http://www.w3.org/2000/svg">
<path d="M9.7561 50.9473C9.7561 28.7034 27.7561 10.7034 50 10.7034C72.2439 10.7034 90.2439 28.7034 90.2439 50.9473C90.2439 73.1912 72.2439 91.1912 50 91.1912C27.7561 91.1912 9.7561 73.1912 9.7561 50.9473ZM50 0.947266C22.3902 0.947266 0 23.3375 0 50.9473C0 78.557 22.3902 100.947 50 100.947C77.6098 100.947 100 78.557 100 50.9473C100 23.3375 77.6098 0.947266 50 0.947266ZM26.8293 57.0448C30.1951 57.0448 32.9268 54.3131 32.9268 50.9473C32.9268 47.5814 30.1951 44.8497 26.8293 44.8497C23.4634 44.8497 20.7317 47.5814 20.7317 50.9473C20.7317 54.3131 23.4634 57.0448 26.8293 57.0448ZM73.1707 57.0448C76.5366 57.0448 79.2683 54.3131 79.2683 50.9473C79.2683 47.5814 76.5366 44.8497 73.1707 44.8497C69.8049 44.8497 67.0732 47.5814 67.0732 50.9473C67.0732 54.3131 69.8049 57.0448 73.1707 57.0448ZM56.0976 50.9473C56.0976 54.3131 53.3659 57.0448 50 57.0448C46.6341 57.0448 43.9024 54.3131 43.9024 50.9473C43.9024 47.5814 46.6341 44.8497 50 44.8497C53.3659 44.8497 56.0976 47.5814 56.0976 50.9473Z" fill="#F7F9F9"/>
</svg>
