<svg width="112" height="113" viewBox="0 0 112 113" fill="none" xmlns="http://www.w3.org/2000/svg">
<path d="M81.5227 49.2161V0.943359H93.7273V49.2161H81.5227ZM63.4886 31.182V18.9775H111.761V31.182H63.4886Z" fill="white"/>
<path fill-rule="evenodd" clip-rule="evenodd" d="M85.8677 66.2159L87.5643 79.5213H12.4138L17.0498 42.8601C18.9988 27.4412 31.3277 15.6085 46.4886 14.0213V3.0293C25.8243 4.6525 8.82952 20.5916 6.19048 41.4862L0 90.4682H23.1746C25.7088 102.959 36.7542 112.362 49.9945 112.362C63.2348 112.362 74.2802 102.959 76.8144 90.4682H100L96.9055 66.2159H85.8677ZM34.5101 90.4682C36.7652 96.8447 42.8462 101.415 49.9945 101.415C57.1429 101.415 63.2239 96.8447 65.4789 90.4682H34.5101Z" fill="#F7F9F9"/>
</svg>
