<svg width="100" height="111" viewBox="0 0 100 111" fill="none" xmlns="http://www.w3.org/2000/svg">
<path d="M93.7438 39.4371C90.936 17.4065 72.1839 0.893066 49.9726 0.893066C27.7614 0.893066 8.97646 17.4284 6.19048 39.4864L0 88.4683H23.1746C25.7088 100.959 36.7542 110.362 49.9945 110.362C63.2348 110.362 74.2802 100.959 76.8144 88.4683H100L93.7438 39.4371ZM49.9945 99.4152C42.8462 99.4152 36.7652 94.8449 34.5101 88.4683H65.4789C63.2239 94.8449 57.1429 99.4152 49.9945 99.4152ZM12.4138 77.5214L17.0498 40.8602C19.1461 24.2757 33.2512 11.84 49.9726 11.84C66.694 11.84 80.7718 24.2538 82.8845 40.8219L87.5643 77.5214H12.4138Z" fill="#F7F9F9"/>
</svg>
