<svg width="162" height="189" viewBox="0 0 162 189" fill="none" xmlns="http://www.w3.org/2000/svg">
<path fill-rule="evenodd" clip-rule="evenodd" d="M52.803 3.43452e-08C48.4702 -0.000267491 44.2827 1.56236 41.0093 4.401C37.7358 7.23964 35.5961 11.1638 34.983 15.453L30.348 47.898C28.4226 61.3788 23.1295 74.1566 14.958 85.05L3.09605 100.872C-0.890953 106.182 0.711046 114.597 7.84805 117.252C14.562 119.754 33.399 125.172 72 125.919V180C72 182.387 72.9483 184.676 74.6361 186.364C76.3239 188.052 78.6131 189 81 189C83.387 189 85.6762 188.052 87.364 186.364C89.0518 184.676 90 182.387 90 180V125.91C128.61 125.172 147.438 119.754 154.152 117.252C161.289 114.597 162.882 106.182 158.904 100.872L147.033 85.05C138.862 74.1566 133.569 61.3788 131.643 47.898L127.017 15.453C126.404 11.1638 124.264 7.23964 120.991 4.401C117.717 1.56236 113.53 -0.000267491 109.197 3.43452e-08H52.803Z" fill="#8B98A5"/>
</svg>
