<svg width="100" height="101" viewBox="0 0 100 101" fill="none" xmlns="http://www.w3.org/2000/svg">
<path d="M42.5916 10.9146C24.6029 10.9146 10.0215 25.496 10.0215 43.4846C10.0215 61.4733 24.6029 76.0547 42.5916 76.0547C51.5859 76.0547 59.7234 72.4168 65.6211 66.5142C71.5238 60.6165 75.1616 52.479 75.1616 43.4846C75.1616 25.496 60.5802 10.9146 42.5916 10.9146ZM0 43.4846C0 19.9641 19.071 0.893066 42.5916 0.893066C66.1121 0.893066 85.1831 19.9641 85.1831 43.4846C85.1831 53.436 81.7658 62.6007 76.0435 69.8513L100 93.8078L92.9148 100.893L68.9583 76.9366C61.7077 82.6589 52.543 86.0762 42.5916 86.0762C19.071 86.0762 0 67.0052 0 43.4846Z" fill="#F7F9F9"/>
</svg>
