<svg width="21" height="21" viewBox="0 0 21 21" fill="none" xmlns="http://www.w3.org/2000/svg">
<path d="M9.25 2.75C5.66 2.75 2.75 5.66 2.75 9.25C2.75 12.84 5.66 15.75 9.25 15.75C11.045 15.75 12.669 15.024 13.846 13.846C15.024 12.669 15.75 11.045 15.75 9.25C15.75 5.66 12.84 2.75 9.25 2.75ZM0.75 9.25C0.75 4.556 4.556 0.75 9.25 0.75C13.944 0.75 17.75 4.556 17.75 9.25C17.75 11.236 17.068 13.065 15.926 14.512L20.707 19.293L19.293 20.707L14.512 15.926C13.065 17.068 11.236 17.75 9.25 17.75C4.556 17.75 0.75 13.944 0.75 9.25Z" fill="#888888"/>
</svg>
